<svg width="76" height="76" viewBox="0 0 76 76" fill="none" xmlns="http://www.w3.org/2000/svg">
<circle cx="38" cy="38" r="38" fill="#FF80E4" fill-opacity="0.5"/>
<path d="M33.4003 31.1495V31.9067C33.4003 39.1997 33.4039 46.4916 33.3979 53.7846C33.3967 55.8633 32.5925 57.5012 30.6911 58.4405C30.1751 58.6957 29.5702 58.8539 28.9972 58.8886C27.4279 58.9833 25.8325 59.157 24.2988 58.6897C22.0866 58.0176 20.8791 56.0035 21.0096 53.9907C21.1709 51.4878 22.8149 49.7577 25.1066 49.4809C25.5751 49.4246 26.0484 49.3958 26.5193 49.3898C27.6011 49.3767 28.6841 49.3862 29.8477 49.3862V48.6614C29.8477 40.0732 29.8525 31.4862 29.837 22.898C29.837 22.3852 29.9058 22.1575 30.4906 22.0605C34.9933 21.3104 39.4865 20.5089 43.9833 19.7253C47.046 19.1909 50.1087 18.6602 53.1714 18.1282C53.4228 18.0851 53.6755 18.0467 53.9708 18C53.9815 18.2025 53.9981 18.375 53.9981 18.5475C53.9993 29.1079 54.0017 39.6682 53.9981 50.2285C53.9981 52.7111 52.7538 54.6388 50.4871 55.1169C48.3187 55.5734 46.0555 55.7759 43.9608 54.682C42.1981 53.7618 41.3049 51.6687 41.6881 49.6043C42.0427 47.6969 43.7235 46.0818 45.676 45.9105C47.008 45.7942 48.3531 45.8302 49.6923 45.8002C49.9236 45.7954 50.1549 45.8002 50.4159 45.8002V28.1901C44.7472 29.1762 39.1129 30.1562 33.4003 31.1507V31.1495Z" fill="white"/>
</svg>
