<svg width="80" height="80" viewBox="0 0 80 80" fill="none" xmlns="http://www.w3.org/2000/svg">
<circle cx="40" cy="40" r="38" fill="black" fill-opacity="0.5"/>
<path fill-rule="evenodd" clip-rule="evenodd" d="M61.9982 30.6618L61.9991 30.6619H61.9982V30.6618ZM61.9982 30.6618C61.942 30.6578 61.8858 30.6525 61.8295 30.6472C61.716 30.6366 61.6023 30.6259 61.489 30.6254C59.2344 30.6233 56.9804 30.6234 54.726 30.6235H54.7259H54.7259H54.7258H54.7258H54.7257H54.7257H54.7256H54.7241L53.0331 30.6236H52.4938V25.0395C52.5222 25.0355 52.551 25.0302 52.5799 25.0248C52.6432 25.0132 52.7077 25.0013 52.7721 25.0013C55.7771 24.9996 58.7812 24.9996 61.7863 25.0013C61.8343 25.0013 61.8823 25.0081 61.9304 25.015C61.953 25.0182 61.9756 25.0214 61.9982 25.0239V30.6618ZM61.8327 38.4519C61.8881 38.4578 61.9436 38.4638 61.9991 38.4683V32.8312C61.9768 32.8282 61.9545 32.8242 61.9321 32.8203C61.8842 32.8119 61.8361 32.8034 61.788 32.8034C58.783 32.8017 55.778 32.8017 52.773 32.8034C52.7076 32.8034 52.6419 32.816 52.5775 32.8284C52.5493 32.8338 52.5214 32.8391 52.4938 32.8434V38.4257H53.034L54.725 38.4256C56.9802 38.4255 59.2355 38.4254 61.4908 38.4275C61.6044 38.4275 61.7185 38.4397 61.8327 38.4519ZM61.9992 46.1886C61.9491 46.1917 61.8988 46.1957 61.8486 46.1996C61.7425 46.208 61.6363 46.2164 61.5306 46.2164C59.3943 46.2177 57.258 46.2176 55.1217 46.2174L52.9885 46.2173H52.4931V40.5924H53.035C55.854 40.5924 58.6729 40.5924 61.4918 40.5906C61.6064 40.5906 61.7211 40.5783 61.8354 40.5661C61.8904 40.5602 61.9453 40.5543 62.0001 40.5498V46.1878L61.9992 46.1886ZM61.3701 54.0044L61.3717 54.0044C61.5808 54.001 61.79 53.9977 61.9991 53.9951V53.9942V48.3562C61.9471 48.3602 61.895 48.3652 61.8429 48.3702L61.8427 48.3702C61.7248 48.3815 61.6068 48.3927 61.4891 48.3927C58.6595 48.3945 55.829 48.3945 52.9994 48.3945H52.9901H52.4913V54.0194H53.0298L55.0554 54.0197H55.0555H55.0557H55.0558H55.056H55.0561H55.0563C56.7419 54.02 58.4271 54.0204 60.1124 54.0185C60.5316 54.0179 60.9509 54.0112 61.3701 54.0044ZM38.9653 38.3978H29.4928V32.8398H38.9653V38.3978ZM38.9955 46.18V40.6211H29.498V46.18H38.9955ZM50.4787 46.1914H40.9924V40.6273H50.4787V46.1914ZM18 53.9984H27.4932V48.4248H18V53.9984ZM29.4996 48.4127H38.9773V53.9811H29.4996V48.4127ZM50.4667 48.4266H40.9873V53.9838H50.4667V48.4266Z" fill="white"/>
</svg>
