<svg width="80" height="80" viewBox="0 0 80 80" fill="none" xmlns="http://www.w3.org/2000/svg">
<circle cx="40" cy="40" r="38" fill="#00D95F" fill-opacity="0.5"/>
<path d="M33.0921 25.0001C41.3852 24.9909 48.5396 25.7133 55.3846 28.2142C58.0214 29.1769 60.5583 30.4182 63.0826 31.6487C64.9056 32.5364 65.4882 34.5522 64.5728 36.1898C63.6278 37.8811 61.5799 38.5055 59.821 37.529C55.633 35.2026 51.1686 33.643 46.4511 32.7507C41.5305 31.8201 36.5693 31.5691 31.569 31.8431C27.3639 32.0742 23.2166 32.6604 19.1161 33.6002C17.3197 34.0119 15.5186 32.8961 15.1031 31.1926C14.6626 29.3897 15.6654 27.576 17.5087 27.1627C20.1064 26.5796 22.7214 26.0194 25.3597 25.672C28.2621 25.2894 31.1988 25.1577 33.0936 25.0016L33.0921 25.0001Z" fill="white"/>
<path d="M18.6707 41.1336C18.6832 39.8969 19.4876 38.8164 20.7935 38.5577C23.2773 38.0649 25.7672 37.5139 28.2838 37.2766C31.222 36.9996 34.1947 36.8726 37.1439 36.9598C44.3623 37.1726 51.2589 38.7092 57.5916 42.2662C58.7413 42.9121 59.363 43.9926 59.1928 45.0747C59.0006 46.2961 58.1384 47.242 56.8559 47.3965C56.2779 47.4654 55.575 47.3567 55.0736 47.0782C50.959 44.7977 46.5352 43.4524 41.8786 42.8065C38.0359 42.2738 34.1666 42.1437 30.3098 42.5677C27.6136 42.8646 24.9378 43.3529 22.2603 43.8044C20.2765 44.1396 18.6504 42.9641 18.6691 41.1367L18.6707 41.1336Z" fill="white"/>
<path d="M33.3109 47.2691C40.8979 47.2615 47.2478 48.4385 53.1213 51.6159C53.9476 52.0628 54.638 52.5939 54.724 53.6117C54.8005 54.5254 54.499 55.2647 53.7102 55.7789C52.8682 56.3269 51.9997 56.3008 51.1405 55.8187C48.9692 54.6019 46.6683 53.7081 44.2517 53.076C39.6592 51.8761 34.9885 51.6189 30.2835 52.0459C28.0966 52.2449 25.9269 52.6413 23.7603 53.0163C22.2778 53.2734 21.0454 52.649 20.7314 51.3572C20.4174 50.0639 21.2422 48.8808 22.6949 48.5548C26.5002 47.7008 30.3507 47.2232 33.3093 47.2691H33.3109Z" fill="white"/>
</svg>
