<svg width="80" height="80" viewBox="0 0 80 80" fill="none" xmlns="http://www.w3.org/2000/svg">
<circle cx="40" cy="40" r="38" fill="#FCCA00" fill-opacity="0.5"/>
<g clip-path="url(#clip0_1701_992)">
<path d="M26.0919 21.0085C29.6968 18.3373 33.9575 16.7225 38.3981 16.3213V23.6694C35.5276 24.0415 32.7862 25.1405 30.4413 26.8781C27.505 29.0538 25.3457 32.1156 24.2819 35.6118C23.2181 39.108 23.3061 42.8536 24.5328 46.2959C25.7596 49.7384 28.0602 52.6956 31.0953 54.731C34.1304 56.7665 37.7394 57.7726 41.3898 57.6013C45.0403 57.4296 48.5389 56.0894 51.3699 53.7784C54.2006 51.467 56.2137 48.3073 57.1124 44.7651C57.7393 42.2942 57.8005 39.7285 57.3096 37.2551L63.48 32.2944L63.4758 32.2544C65.1415 36.8363 65.3961 41.821 64.1936 46.5614C62.9098 51.6218 60.034 56.1357 55.9898 59.4374C51.9457 62.7388 46.9477 64.6534 41.7327 64.8984C36.5178 65.1434 31.3622 63.7061 27.0263 60.7981C22.6904 57.8905 19.4038 53.6661 17.6513 48.7483C15.8988 43.8306 15.7731 38.4798 17.2929 33.4852C18.8126 28.4906 21.8973 24.1166 26.0919 21.0085Z" fill="white"/>
<path d="M58.8273 24.4383L58.8531 24.5031L54.7297 31.0522C53.23 28.8301 51.2207 26.9805 48.869 25.6713V40.575C48.869 45.1477 45.1622 48.8546 40.5895 48.8546C36.0169 48.8546 32.3101 45.1477 32.3101 40.575C32.3101 36.0024 36.0169 32.2955 40.5895 32.2955C42.3032 32.2955 43.8954 32.8162 45.2163 33.708V16.6626C50.5917 17.6965 55.3382 20.4979 58.8273 24.4383Z" fill="#FC3F1D" fill-opacity="0.5"/>
</g>
<defs>
<clipPath id="clip0_1701_992">
<rect width="49" height="49" fill="white" transform="translate(16 16)"/>
</clipPath>
</defs>
</svg>
