<svg width="80" height="80" viewBox="0 0 80 80" fill="none" xmlns="http://www.w3.org/2000/svg">
<circle cx="40" cy="40" r="38" fill="#FF0000" fill-opacity="0.5"/>
<path d="M26.845 55.28C25.4767 55.2215 24.1083 55.042 22.7525 54.8379C20.0418 54.4308 18.2128 52.7606 17.7416 50.1004C17.3954 48.143 17.1474 46.1526 17.0724 44.1688C16.9618 41.2526 16.9945 38.3279 17.0608 35.4079C17.1079 33.323 17.306 31.2419 17.7955 29.2004C18.3974 26.6942 20.3956 24.9862 22.9862 24.6679C27.4691 24.1171 31.9771 24 36.4841 24C41.5517 24 46.6212 24.102 51.6869 24.2409C53.5177 24.291 55.3534 24.4988 57.166 24.769C59.9873 25.1893 61.7259 26.9398 62.2394 29.7351C62.9779 33.7575 63.0846 37.8206 62.951 41.8902C62.8827 43.9751 62.7125 46.0591 62.5077 48.1355C62.4086 49.1425 62.2413 50.1741 61.899 51.1225C61.0711 53.4105 59.3113 54.6207 56.8852 54.9296C52.2609 55.519 47.6068 55.5389 42.9565 55.6239C41.9815 55.6419 31.2376 55.468 26.845 55.281V55.28ZM35.3926 46.556C39.39 44.2944 43.3316 42.0631 47.3328 39.7987C43.3152 37.5258 39.3775 35.2983 35.3926 33.0443V46.556Z" fill="white"/>
</svg>
