<svg width="22" height="22" viewBox="0 0 22 22" fill="none" xmlns="http://www.w3.org/2000/svg">
<path d="M12.7978 19.998H3.79889C3.31661 20.0147 2.84903 19.8305 2.5078 19.4893C2.16657 19.148 1.98234 18.6805 1.9991 18.1982V9.19923C1.98234 8.71696 2.16657 8.24937 2.5078 7.90814C2.84903 7.56692 3.31661 7.38268 3.79889 7.39944H7.39847V3.79986C7.38171 3.31759 7.56594 2.85 7.90717 2.50878C8.24839 2.16755 8.71598 1.98332 9.19826 2.00007H18.1972C18.6795 1.98332 19.1471 2.16755 19.4883 2.50878C19.8295 2.85 20.0138 3.31759 19.997 3.79986V12.7988C20.0135 13.281 19.8292 13.7484 19.488 14.0896C19.1468 14.4308 18.6794 14.6151 18.1972 14.5986H14.5976V18.1982C14.6141 18.6804 14.4298 19.1478 14.0886 19.489C13.7475 19.8301 13.28 20.0145 12.7978 19.998ZM3.79889 9.19923V18.1982H12.7978V14.5986H9.19826C8.71606 14.6151 8.24863 14.4308 7.90746 14.0896C7.5663 13.7484 7.38198 13.281 7.39847 12.7988V9.19923H3.79889ZM9.19826 3.79986V12.7988H18.1972V3.79986H9.19826Z" fill="#A762FF"/>
</svg>
