<svg width="22" height="22" viewBox="0 0 22 22" fill="none" xmlns="http://www.w3.org/2000/svg">
<circle cx="11" cy="11" r="11" fill="#9F9F9F"/>
<path d="M19 11C19 12.1046 18.1046 13 17 13C15.8954 13 15 12.1046 15 11C15 9.89543 15.8954 9 17 9C18.1046 9 19 9.89543 19 11ZM13 11C13 12.1046 12.1046 13 11 13C9.89543 13 9 12.1046 9 11C9 9.89543 9.89543 9 11 9C11.5304 9 12.0391 9.21071 12.4142 9.58579C12.7893 9.96086 13 10.4696 13 11ZM7 11C7 12.1046 6.10457 13 5 13C3.89543 13 3 12.1046 3 11C3 9.89543 3.89543 9 5 9C5.53043 9 6.03914 9.21071 6.41421 9.58579C6.78929 9.96086 7 10.4696 7 11Z" fill="white"/>
</svg>
