<svg width="60" height="60" viewBox="0 0 60 60" fill="none" xmlns="http://www.w3.org/2000/svg">
<path d="M58 30C58 14.5359 45.4641 2 30 2C14.5359 2 2 14.5359 2 30C2 43.9763 12.2408 55.5625 25.6314 57.6676V38.104H18.5246V30.0158H25.6314V23.8428C25.6314 16.831 29.8101 12.9531 36.2046 12.9531C39.2753 12.9531 42.4726 13.5071 42.4726 13.5071V20.3923H38.9429C35.4607 20.3923 34.3844 22.5449 34.3844 24.7609V30.0158H42.156L40.9214 38.104H34.4002V57.6676C47.7908 55.5625 58.0317 43.9763 58.0317 30H58Z" fill="#337FFF"/>
<path d="M40.9046 38.0884L42.1392 30.0002H34.3676V24.7453C34.3676 22.5294 35.4598 20.3767 38.9261 20.3767H42.4558V13.4915C42.4558 13.4915 39.2585 12.9375 36.1879 12.9375C29.7933 12.9375 25.6147 16.8154 25.6147 23.8273V30.0002H18.5078V38.0884H25.6147V57.652C27.0392 57.8736 28.4954 58.0002 29.9832 58.0002C31.4711 58.0002 32.9273 57.8894 34.3518 57.652V38.0884H40.873H40.9046Z" fill="white"/>
</svg>
