<svg width="20" height="20" viewBox="0 0 20 20" fill="none" xmlns="http://www.w3.org/2000/svg">
<path d="M15.5229 19.9998C14.4391 20.0122 13.4118 19.5193 12.7466 18.6676C12.0814 17.8159 11.8548 16.7035 12.1343 15.6612L5.86403 12.0942C4.78053 13.0822 3.19233 13.2913 1.88799 12.6177C0.583655 11.9441 -0.158981 10.5313 0.0288205 9.08073C0.216622 7.63019 1.29486 6.4509 2.72816 6.1284C4.16146 5.80591 5.64452 6.40891 6.44097 7.63799L12.1333 4.399C12.0597 4.12205 12.0206 3.8371 12.0171 3.55063C12.0028 1.8825 13.1668 0.433407 14.8049 0.0801794C16.443 -0.273049 18.1053 0.566597 18.7859 2.09106C19.4665 3.61552 18.9785 5.40612 17.6173 6.37939C16.256 7.35266 14.3953 7.24131 13.161 6.11271L6.99989 9.61687C6.99379 9.87539 6.95749 10.1323 6.89171 10.3825L13.161 13.9485C14.3152 12.8943 16.0325 12.7316 17.3658 13.55C18.6991 14.3685 19.3237 15.969 18.8952 17.4686C18.4667 18.9683 17.0894 20.0021 15.5229 19.9998ZM15.5229 15.0152C14.6931 15.0152 14.0204 15.6847 14.0204 16.5106C14.0204 17.3364 14.6931 18.0059 15.5229 18.0059C16.3527 18.0059 17.0253 17.3364 17.0253 16.5106C17.0253 15.6847 16.3527 15.0152 15.5229 15.0152ZM3.50315 8.03676C2.67337 8.03676 2.00069 8.70626 2.00069 9.53213C2.00069 10.358 2.67337 11.0275 3.50315 11.0275C4.33294 11.0275 5.00562 10.358 5.00562 9.53213C5.00562 8.70626 4.33294 8.03676 3.50315 8.03676ZM15.5229 2.05525C14.6931 2.05525 14.0204 2.72475 14.0204 3.55063C14.0204 4.3765 14.6931 5.046 15.5229 5.046C16.3527 5.046 17.0253 4.3765 17.0253 3.55063C17.0253 2.72475 16.3527 2.05525 15.5229 2.05525Z" fill="#9747FF"/>
</svg>
