<svg width="60" height="60" viewBox="0 0 60 60" fill="none" xmlns="http://www.w3.org/2000/svg">
<g clip-path="url(#clip0_2001_942)">
<path d="M30 58C45.464 58 58 45.464 58 30C58 14.536 45.464 2 30 2C14.536 2 2 14.536 2 30C2 45.464 14.536 58 30 58Z" fill="url(#paint0_linear_2001_942)"/>
<path d="M38.6888 19.4111C37.6284 19.4111 36.7578 20.2659 36.7578 21.3422C36.7578 22.4185 37.6125 23.2732 38.6888 23.2732C39.7652 23.2732 40.6199 22.4185 40.6199 21.3422C40.6199 20.2659 39.7652 19.4111 38.6888 19.4111Z" fill="white"/>
<path d="M30.1429 21.8804C25.6793 21.8804 22.0547 25.505 22.0547 29.9686C22.0547 34.4321 25.6793 38.0567 30.1429 38.0567C34.6064 38.0567 38.2311 34.4321 38.2311 29.9686C38.2311 25.505 34.6064 21.8804 30.1429 21.8804ZM30.1429 35.1444C27.2938 35.1444 24.9671 32.8176 24.9671 29.9686C24.9671 27.1195 27.2938 24.7927 30.1429 24.7927C32.9919 24.7927 35.3187 27.1195 35.3187 29.9686C35.3187 32.8176 32.9919 35.1444 30.1429 35.1444Z" fill="white"/>
<path d="M36.5526 46.3823H23.4469C18.002 46.3823 13.5859 41.9504 13.5859 36.5213V23.4156C13.5859 17.9707 18.002 13.5547 23.4469 13.5547H36.5526C41.9975 13.5547 46.4135 17.9707 46.4135 23.4156V36.5213C46.4135 41.9662 41.9816 46.3823 36.5526 46.3823ZM23.4469 16.6412C19.7114 16.6412 16.6724 19.6802 16.6724 23.4156V36.5213C16.6724 40.2568 19.7114 43.2958 23.4469 43.2958H36.5526C40.288 43.2958 43.327 40.2568 43.327 36.5213V23.4156C43.327 19.6802 40.288 16.6412 36.5526 16.6412H23.4469Z" fill="white"/>
</g>
<defs>
<linearGradient id="paint0_linear_2001_942" x1="3.77275" y1="7.84059" x2="59.7569" y2="55.1351" gradientUnits="userSpaceOnUse">
<stop stop-color="#FBE18A"/>
<stop offset="0.21" stop-color="#FCBB45"/>
<stop offset="0.38" stop-color="#F75274"/>
<stop offset="0.52" stop-color="#D53692"/>
<stop offset="0.74" stop-color="#8F39CE"/>
<stop offset="1" stop-color="#5B4FE9"/>
</linearGradient>
<clipPath id="clip0_2001_942">
<rect width="56" height="56" fill="white" transform="translate(2 2)"/>
</clipPath>
</defs>
</svg>
