<svg width="20" height="20" viewBox="0 0 20 20" fill="none" xmlns="http://www.w3.org/2000/svg">
<path d="M15.2937 3.56787C14.6476 3.56787 14.1172 4.0886 14.1172 4.74434C14.1172 5.40008 14.6379 5.92081 15.2937 5.92081C15.9494 5.92081 16.4701 5.40008 16.4701 4.74434C16.4701 4.0886 15.9494 3.56787 15.2937 3.56787Z" fill="#9F9F9F"/>
<path d="M10.0859 5.07227C7.3665 5.07227 5.1582 7.28056 5.1582 9.99994C5.1582 12.7193 7.3665 14.9276 10.0859 14.9276C12.8053 14.9276 15.0136 12.7193 15.0136 9.99994C15.0136 7.28056 12.8053 5.07227 10.0859 5.07227ZM10.0859 13.1533C8.3501 13.1533 6.93255 11.7357 6.93255 9.99994C6.93255 8.26417 8.3501 6.84661 10.0859 6.84661C11.8217 6.84661 13.2392 8.26417 13.2392 9.99994C13.2392 11.7357 11.8217 13.1533 10.0859 13.1533Z" fill="#9F9F9F"/>
<path d="M13.9923 20H6.00771C2.69045 20 0 17.2999 0 13.9923V6.00771C0 2.69045 2.69045 0 6.00771 0H13.9923C17.3095 0 20 2.69045 20 6.00771V13.9923C20 17.3095 17.2999 20 13.9923 20ZM6.00771 1.88042C3.73192 1.88042 1.88042 3.73192 1.88042 6.00771V13.9923C1.88042 16.2681 3.73192 18.1196 6.00771 18.1196H13.9923C16.2681 18.1196 18.1196 16.2681 18.1196 13.9923V6.00771C18.1196 3.73192 16.2681 1.88042 13.9923 1.88042H6.00771Z" fill="#9F9F9F"/>
</svg>
