<svg width="22" height="22" viewBox="0 0 22 22" fill="none" xmlns="http://www.w3.org/2000/svg">
<path d="M16.5229 20.9998C15.4391 21.0122 14.4118 20.5193 13.7466 19.6676C13.0814 18.8159 12.8548 17.7035 13.1343 16.6612L6.86403 13.0942C5.78053 14.0822 4.19233 14.2913 2.88799 13.6177C1.58366 12.9441 0.841019 11.5313 1.02882 10.0807C1.21662 8.63019 2.29486 7.4509 3.72816 7.1284C5.16146 6.80591 6.64452 7.40891 7.44097 8.63799L13.1333 5.399C13.0597 5.12205 13.0206 4.8371 13.0171 4.55063C13.0028 2.8825 14.1668 1.43341 15.8049 1.08018C17.443 0.726951 19.1053 1.5666 19.7859 3.09106C20.4665 4.61552 19.9785 6.40612 18.6173 7.37939C17.256 8.35266 15.3953 8.24131 14.161 7.11271L7.99989 10.6169C7.99379 10.8754 7.95749 11.1323 7.89171 11.3825L14.161 14.9485C15.3152 13.8943 17.0325 13.7316 18.3658 14.55C19.6991 15.3685 20.3237 16.969 19.8952 18.4686C19.4667 19.9683 18.0894 21.0021 16.5229 20.9998ZM16.5229 16.0152C15.6931 16.0152 15.0204 16.6847 15.0204 17.5106C15.0204 18.3364 15.6931 19.0059 16.5229 19.0059C17.3527 19.0059 18.0253 18.3364 18.0253 17.5106C18.0253 16.6847 17.3527 16.0152 16.5229 16.0152ZM4.50315 9.03676C3.67337 9.03676 3.00069 9.70626 3.00069 10.5321C3.00069 11.358 3.67337 12.0275 4.50315 12.0275C5.33294 12.0275 6.00562 11.358 6.00562 10.5321C6.00562 9.70626 5.33294 9.03676 4.50315 9.03676ZM16.5229 3.05525C15.6931 3.05525 15.0204 3.72475 15.0204 4.55063C15.0204 5.3765 15.6931 6.046 16.5229 6.046C17.3527 6.046 18.0253 5.3765 18.0253 4.55063C18.0253 3.72475 17.3527 3.05525 16.5229 3.05525Z" fill="#9F9F9F"/>
</svg>
