<svg width="56" height="56" viewBox="0 0 56 56" fill="none" xmlns="http://www.w3.org/2000/svg">
<g clip-path="url(#clip0_2084_604)">
<path d="M28 56C43.464 56 56 43.464 56 28C56 12.536 43.464 0 28 0C12.536 0 0 12.536 0 28C0 43.464 12.536 56 28 56Z" fill="url(#paint0_linear_2084_604)"/>
<path d="M18.9516 30.048L22.2736 39.2429C22.2736 39.2429 22.6889 40.1019 23.1326 40.1019C23.5763 40.1019 30.1919 33.2205 30.1919 33.2205L37.5479 19.0117L19.0679 27.6727L18.9492 30.0456L18.9516 30.048Z" fill="#C8DAEA"/>
<path d="M23.3584 32.4043L22.72 39.1812C22.72 39.1812 22.4543 41.2575 24.5282 39.1812C26.6021 37.105 28.5906 35.5033 28.5906 35.5033" fill="#A9C6D8"/>
<path d="M19.0129 30.3751L12.1814 28.1493C12.1814 28.1493 11.3651 27.8171 11.6285 27.0673C11.6831 26.913 11.7922 26.7801 12.1173 26.5524C13.6312 25.4964 40.1411 15.9693 40.1411 15.9693C40.1411 15.9693 40.8909 15.7178 41.3322 15.8839C41.5339 15.9598 41.6644 16.0476 41.7712 16.3632C41.8116 16.4771 41.8329 16.7239 41.8306 16.9659C41.8306 17.1415 41.8068 17.3029 41.7902 17.5591C41.6289 20.1646 36.7977 39.6079 36.7977 39.6079C36.7977 39.6079 36.5082 40.7446 35.4736 40.7849C35.0963 40.7991 34.6383 40.7232 34.0902 40.251C32.0567 38.5022 25.0329 33.7801 23.4811 32.7432C23.3933 32.6839 23.3695 32.6079 23.3529 32.5344C23.3316 32.4252 23.4502 32.29 23.4502 32.29C23.4502 32.29 35.6824 21.4174 36.0075 20.2761C36.0336 20.1883 35.9387 20.1432 35.8106 20.1812C34.999 20.4801 20.9136 29.3737 19.3594 30.3561C19.2692 30.413 19.0129 30.3774 19.0129 30.3774V30.3751Z" fill="white"/>
</g>
<defs>
<linearGradient id="paint0_linear_2084_604" x1="28" y1="56" x2="28" y2="0" gradientUnits="userSpaceOnUse">
<stop stop-color="#1D93D2"/>
<stop offset="1" stop-color="#38B0E3"/>
</linearGradient>
<clipPath id="clip0_2084_604">
<rect width="56" height="56" fill="white"/>
</clipPath>
</defs>
</svg>
