<svg width="21" height="20" viewBox="0 0 21 20" fill="none" xmlns="http://www.w3.org/2000/svg">
<path d="M19.4204 4.67994C18.851 4.92521 18.2187 5.07159 17.599 5.17049C17.8921 5.12301 18.3234 4.62456 18.4951 4.41885C18.7589 4.11028 18.9766 3.7582 19.098 3.37842C19.1148 3.35073 19.1273 3.31117 19.098 3.28743C19.0603 3.27161 19.031 3.27952 19.0017 3.29535C18.315 3.64347 17.6032 3.89666 16.8453 4.07468C16.7825 4.0905 16.7364 4.07468 16.6945 4.03907C16.6317 3.97182 16.5731 3.90852 16.5061 3.8571C16.1879 3.59996 15.8445 3.40216 15.4593 3.25183C14.9526 3.05799 14.3999 2.97491 13.8556 3.00656C13.3238 3.03821 12.8046 3.18062 12.3356 3.41403C11.8624 3.64743 11.4437 3.97182 11.1087 4.35951C10.7612 4.76302 10.5057 5.24169 10.3759 5.74806C10.2503 6.23465 10.2587 6.71728 10.3383 7.21178C10.3508 7.29486 10.3383 7.30277 10.2629 7.29486C7.29411 6.87948 4.84037 5.87861 2.84304 3.73051C2.75511 3.63556 2.70905 3.63556 2.63786 3.73842C1.76691 4.97269 2.18983 6.9586 3.27852 7.93573C3.42507 8.06627 3.57162 8.19682 3.73493 8.3155C3.67631 8.32737 2.95191 8.25221 2.30288 7.93573C2.21495 7.8843 2.17308 7.91199 2.1647 8.00693C2.15633 8.14144 2.1647 8.26407 2.18983 8.40649C2.35732 9.66054 3.27433 10.8196 4.5347 11.2706C4.68544 11.33 4.84874 11.3814 5.01205 11.4091C4.72731 11.4684 4.43002 11.5119 3.60931 11.4486C3.50882 11.4289 3.46694 11.4803 3.50882 11.5713C4.12434 13.1616 5.46008 13.6363 6.45665 13.9053C6.59065 13.9291 6.72464 13.9291 6.85863 13.9567C6.85026 13.9686 6.84188 13.9686 6.83351 13.9805C6.50271 14.4592 5.3554 14.8112 4.81943 14.9893C3.84798 15.3097 2.78861 15.4561 1.76272 15.3611C1.59942 15.3374 1.56174 15.3413 1.51986 15.3611C1.4738 15.3888 1.51568 15.4244 1.56592 15.464C1.77529 15.5945 1.98465 15.7093 2.20239 15.82C2.8556 16.1484 3.53394 16.4055 4.24578 16.5914C7.9222 17.5488 12.0592 16.8446 14.8186 14.2574C16.9835 12.224 17.7455 9.41922 17.7455 6.61047C17.7455 6.4997 17.8837 6.44036 17.9633 6.38102C18.5286 5.98147 18.9808 5.50279 19.4037 4.96873C19.5 4.85005 19.5 4.74324 19.5 4.69972V4.6839C19.5 4.64038 19.5 4.65225 19.4246 4.6839L19.4204 4.67994Z" fill="#9F9F9F"/>
</svg>
