<svg width="60" height="60" viewBox="0 0 60 60" fill="none" xmlns="http://www.w3.org/2000/svg">
<g clip-path="url(#clip0_2001_943)">
<path d="M30 58C45.464 58 58 45.464 58 30C58 14.536 45.464 2 30 2C14.536 2 2 14.536 2 30C2 45.464 14.536 58 30 58Z" fill="#33CCFF"/>
<path d="M45.4791 20.4083C44.5135 20.8515 43.4372 21.1206 42.3926 21.2947C42.8832 21.2155 43.6113 20.3133 43.9121 19.9493C44.3553 19.3953 44.7351 18.7622 44.9409 18.0816C44.9726 18.0341 44.9884 17.9549 44.9409 17.9233C44.8776 17.8916 44.8301 17.9233 44.7826 17.9233C43.6113 18.5564 42.4084 18.9996 41.1263 19.332C41.0155 19.3637 40.9364 19.332 40.8731 19.2687C40.7623 19.1421 40.6673 19.0313 40.5565 18.9363C40.0184 18.4773 39.4327 18.1132 38.7838 17.8442C37.929 17.4959 36.9952 17.3535 36.0613 17.401C35.1591 17.4643 34.2727 17.7175 33.4813 18.1291C32.6741 18.5406 31.9618 19.1262 31.392 19.8227C30.8064 20.5508 30.3632 21.4055 30.1416 22.3077C29.92 23.1782 29.9516 24.0488 30.0783 24.9352C30.0941 25.0776 30.0783 25.1093 29.9516 25.0776C24.9183 24.3337 20.7555 22.5293 17.3683 18.6672C17.2258 18.4931 17.1467 18.4931 17.02 18.6672C15.5322 20.8832 16.2603 24.4603 18.1122 26.2014C18.3654 26.4388 18.6187 26.6763 18.8878 26.882C18.7928 26.8979 17.5582 26.7712 16.4661 26.2014C16.3236 26.1064 16.2445 26.1539 16.2286 26.328C16.2286 26.5655 16.2286 26.7871 16.2761 27.0561C16.561 29.3037 18.1122 31.393 20.249 32.2003C20.5022 32.3111 20.7871 32.406 21.0562 32.4535C20.5656 32.5643 20.0749 32.6435 18.682 32.5327C18.5079 32.501 18.4446 32.5802 18.5079 32.7543C19.5526 35.6033 21.816 36.4581 23.5096 36.9487C23.7312 36.9804 23.9686 36.9804 24.1902 37.0437C24.1902 37.0595 24.1585 37.0595 24.1427 37.0912C23.5887 37.9459 21.626 38.579 20.7238 38.8956C19.0777 39.4654 17.2733 39.7345 15.5322 39.5604C15.2473 39.5129 15.1998 39.5287 15.1207 39.5604C15.0415 39.6079 15.1207 39.6712 15.1998 39.7503C15.548 39.9877 15.9121 40.1935 16.2761 40.3834C17.3841 40.9691 18.5396 41.4439 19.7425 41.7763C25.9788 43.5016 33.0065 42.2353 37.6758 37.5819C41.3479 33.9256 42.6458 28.8922 42.6458 23.843C42.6458 23.6531 42.8832 23.5423 43.0099 23.4315C43.9596 22.7192 44.7351 21.8487 45.4474 20.899C45.6057 20.6774 45.6057 20.4875 45.6057 20.4083V20.3767C45.6057 20.2975 45.6057 20.3133 45.4791 20.3767V20.4083Z" fill="white"/>
</g>
<defs>
<clipPath id="clip0_2001_943">
<rect width="56" height="56" fill="white" transform="translate(2 2)"/>
</clipPath>
</defs>
</svg>
