<svg width="20" height="20" viewBox="0 0 20 20" fill="none" xmlns="http://www.w3.org/2000/svg">
<path d="M18.9204 4.67994C18.351 4.92521 17.7187 5.07159 17.099 5.17049C17.3921 5.12301 17.8234 4.62456 17.9951 4.41885C18.2589 4.11028 18.4766 3.7582 18.598 3.37842C18.6148 3.35073 18.6273 3.31117 18.598 3.28743C18.5603 3.27161 18.531 3.27952 18.5017 3.29535C17.815 3.64347 17.1032 3.89666 16.3453 4.07468C16.2825 4.0905 16.2364 4.07468 16.1945 4.03907C16.1317 3.97182 16.0731 3.90852 16.0061 3.8571C15.6879 3.59996 15.3445 3.40216 14.9593 3.25183C14.4526 3.05799 13.8999 2.97491 13.3556 3.00656C12.8238 3.03821 12.3046 3.18062 11.8356 3.41403C11.3624 3.64743 10.9437 3.97182 10.6087 4.35951C10.2612 4.76302 10.0057 5.24169 9.87594 5.74806C9.75032 6.23465 9.7587 6.71728 9.83825 7.21178C9.85082 7.29486 9.83825 7.30277 9.76288 7.29486C6.79411 6.87948 4.34037 5.87861 2.34304 3.73051C2.25511 3.63556 2.20905 3.63556 2.13786 3.73842C1.26691 4.97269 1.68983 6.9586 2.77852 7.93573C2.92507 8.06627 3.07162 8.19682 3.23493 8.3155C3.17631 8.32737 2.45191 8.25221 1.80288 7.93573C1.71495 7.8843 1.67308 7.91199 1.6647 8.00693C1.65633 8.14144 1.6647 8.26407 1.68983 8.40649C1.85732 9.66054 2.77433 10.8196 4.0347 11.2706C4.18544 11.33 4.34874 11.3814 4.51205 11.4091C4.22731 11.4684 3.93002 11.5119 3.10931 11.4486C3.00882 11.4289 2.96694 11.4803 3.00882 11.5713C3.62434 13.1616 4.96008 13.6363 5.95665 13.9053C6.09065 13.9291 6.22464 13.9291 6.35863 13.9567C6.35026 13.9686 6.34188 13.9686 6.33351 13.9805C6.00271 14.4592 4.8554 14.8112 4.31943 14.9893C3.34798 15.3097 2.28861 15.4561 1.26272 15.3611C1.09942 15.3374 1.06174 15.3413 1.01986 15.3611C0.973803 15.3888 1.01568 15.4244 1.06592 15.464C1.27529 15.5945 1.48465 15.7093 1.70239 15.82C2.3556 16.1484 3.03394 16.4055 3.74578 16.5914C7.4222 17.5488 11.5592 16.8446 14.3186 14.2574C16.4835 12.224 17.2455 9.41922 17.2455 6.61047C17.2455 6.4997 17.3837 6.44036 17.4633 6.38102C18.0286 5.98147 18.4808 5.50279 18.9037 4.96873C19 4.85005 19 4.74324 19 4.69972V4.6839C19 4.64038 19 4.65225 18.9246 4.6839L18.9204 4.67994Z" fill="#9F9F9F"/>
</svg>
